<svg width="1240" height="249" viewBox="0 0 1240 249" fill="none" xmlns="http://www.w3.org/2000/svg">
  <title>City Tier Stats Brand - Clean Perspective</title>
  <desc>Transparent SVG athletic wordmark with a controlled gold raised edge and burgundy front face.</desc>

  <defs>
    <linearGradient id="gold-edge" x1="76" y1="24" x2="1162" y2="227" gradientUnits="userSpaceOnUse">
      <stop offset="0" stop-color="#F1D27A"/>
      <stop offset="0.45" stop-color="#C6A052"/>
      <stop offset="1" stop-color="#9A762C"/>
    </linearGradient>

    <linearGradient id="maroon-face" x1="88" y1="36" x2="1148" y2="221" gradientUnits="userSpaceOnUse">
      <stop offset="0" stop-color="#9D1445"/>
      <stop offset="0.52" stop-color="#860038"/>
      <stop offset="1" stop-color="#5C0026"/>
    </linearGradient>

    <linearGradient id="face-light" x1="88" y1="28" x2="1148" y2="225" gradientUnits="userSpaceOnUse">
      <stop offset="0" stop-color="#FFFFFF" stop-opacity="0.13"/>
      <stop offset="0.42" stop-color="#FFFFFF" stop-opacity="0.03"/>
      <stop offset="1" stop-color="#000000" stop-opacity="0.14"/>
    </linearGradient>

    <filter id="soft-shadow" x="-8%" y="-30%" width="116%" height="160%" color-interpolation-filters="sRGB">
      <feDropShadow dx="0" dy="7" stdDeviation="5" flood-color="#000000" flood-opacity="0.16"/>
    </filter>
  </defs>

  <g id="brand-clean-perspective" filter="url(#soft-shadow)">
    <!-- Low dark contact shadow, very tight so it does not read as another word -->
    <path id="contact-shadow" d="M 182.22 137.33 Q 173.68 152.71 161.24 160.17 Q 148.79 167.63 131.62 167.63 Q 106.45 167.63 96.02 153.74 Q 85.58 139.84 92.68 116.08 Q 99.77 92.23 118.58 78.36 Q 137.41 64.46 162.58 64.46 Q 171.42 64.46 180.36 66.59 Q 189.3 68.72 198.7 73.05 L 191.4 97.5 L 182.96 97.5 Q 184.12 84.96 179.11 78.74 Q 174.12 72.52 162.86 72.52 Q 148.35 72.52 138.08 83.22 Q 127.84 93.89 121.18 116.08 Q 114.52 138.24 118.39 148.9 Q 122.28 159.56 136.92 159.56 Q 146.85 159.56 154.78 154.04 Q 162.74 148.52 168.97 137.33 L 182.22 137.33 Z M 219.96 74.84 Q 221.6 69.45 226.4 65.76 Q 231.22 62.05 236.63 62.05 Q 241.87 62.05 244.49 65.78 Q 246.39 68.53 246.01 72.18 Q 245.88 73.45 245.47 74.84 Q 243.92 80.1 239.1 83.81 Q 234.28 87.5 229.01 87.5 Q 223.62 87.5 221.02 83.83 Q 219.03 81.11 219.41 77.44 Q 219.55 76.18 219.96 74.84 Z M 220.92 157.64 L 231.04 157.64 L 228.66 165.69 L 194.96 165.69 L 213.75 102.95 L 203.69 102.95 L 206.07 94.89 L 239.7 94.89 L 220.92 157.64 Z M 265.63 102.95 L 255.38 102.95 L 257.74 94.89 L 268.01 94.89 L 274.58 72.92 L 298.15 72.92 L 291.58 94.89 L 311.23 94.89 L 308.85 102.95 L 289.2 102.95 L 276.18 146.32 Q 274.43 152.25 274.11 155.23 Q 273.92 157.04 274.18 157.83 Q 275.01 160.09 278.87 160.09 Q 283.13 160.09 286.03 157.23 Q 288.93 154.38 290.88 148.37 L 300.81 148.37 Q 297.03 159.02 290.5 163.33 Q 284 167.63 271.21 167.63 Q 256.63 167.63 252.79 163.03 Q 250.29 160.09 250.93 153.97 Q 251.28 150.65 252.61 146.32 L 265.63 102.95 Z M 336.3 183.87 L 325.9 102.95 L 318.23 102.95 L 320.68 94.89 L 349.6 94.89 L 358.24 163.37 Q 367.07 152.31 373.5 139.82 Q 379.95 127.33 387.55 103.08 L 378.11 103.01 L 380.49 94.96 L 399.6 94.89 Q 397.04 103.42 393.49 114.42 Q 384.73 141.44 376.02 153.97 Q 353.07 186.6 336.79 192.61 Q 327.57 196 314.78 196 Q 308.52 196 299.69 193.14 L 304.13 178.35 L 311.64 178.42 Q 311.2 180.02 311.06 181.34 Q 310.57 185.94 313.55 187.41 Q 314.89 188.07 317.7 188.48 Q 319.28 188.67 320.88 188.67 Q 328.28 188.67 336.3 183.87 Z M 446.9 165.69 L 449.28 157.64 L 462.48 157.64 L 487.11 75.37 L 459.87 75.37 L 455.21 91.1 L 446.09 91.1 L 453.5 66.25 L 552.07 66.25 L 544.66 91.1 L 535.67 91.1 L 540.32 75.37 L 512.87 75.37 L 488.24 157.64 L 501.5 157.64 L 499.12 165.69 L 446.9 165.69 Z M 563.02 74.84 Q 564.66 69.45 569.45 65.76 Q 574.28 62.05 579.69 62.05 Q 584.93 62.05 587.55 65.78 Q 589.45 68.53 589.07 72.18 Q 588.94 73.45 588.53 74.84 Q 586.98 80.1 582.16 83.81 Q 577.34 87.5 572.07 87.5 Q 566.68 87.5 564.08 83.83 Q 562.09 81.11 562.47 77.44 Q 562.61 76.18 563.02 74.84 Z M 563.98 157.64 L 574.1 157.64 L 571.72 165.69 L 538.02 165.69 L 556.81 102.95 L 546.75 102.95 L 549.13 94.89 L 582.76 94.89 L 563.98 157.64 Z M 648.28 110.28 Q 649.31 100.5 641.04 100.5 Q 634.71 100.5 630.35 106.47 Q 626 112.41 620.64 131.13 Q 620.64 131.13 622.12 131.13 Q 642.49 131.13 647.32 114.95 Q 648.06 112.41 648.28 110.28 Z M 618.21 139.05 Q 617.57 141.31 617.07 146.04 Q 615.66 160.09 629.32 160.09 Q 636.97 160.09 642.92 156.04 Q 648.89 151.97 652.49 144.25 L 663.55 144.25 Q 657.09 156.3 646.86 161.96 Q 636.65 167.63 621.33 167.63 Q 602.95 167.63 596.04 157.96 Q 591.24 151.18 592.36 140.46 Q 592.85 135.86 594.48 130.47 Q 599.74 112.67 612.75 102.82 Q 625.79 92.96 643.37 92.96 Q 656.09 92.96 664.39 97.92 Q 672.69 102.89 671.75 111.88 Q 671.56 113.67 670.95 115.61 Q 664.49 137.18 618.21 139.05 Z M 759.59 94.11 L 753.26 115.21 L 745.73 115.21 Q 746.07 113.82 746.2 112.61 Q 746.59 108.88 745.21 106.81 Q 743.37 104.02 738.3 104.02 Q 730.58 104.02 724.07 110.82 Q 717.56 117.61 713.97 129.66 L 703.2 165.69 L 679.6 165.69 L 698.39 102.95 L 687.6 102.95 L 689.98 94.89 L 724.34 94.89 L 720.63 107.49 Q 726.27 100.1 733.03 96.54 Q 739.8 92.96 748.07 92.96 Q 750.12 92.96 752.98 93.28 Q 755.85 93.57 759.59 94.11 Z M 793.59 160.9 L 800.67 137.33 L 809.14 137.33 Q 807.68 148.52 813.22 154.04 Q 818.78 159.56 831.5 159.56 Q 841.84 159.56 848.41 155.63 Q 854.98 151.71 857.25 144.1 Q 859.07 138.12 856.37 134.79 Q 853.7 131.47 843.09 128.59 L 829.28 124.92 Q 815.82 121.19 811.89 114.59 Q 807.96 107.96 811.57 95.7 Q 816.07 80.91 828.35 72.69 Q 840.64 64.46 858.35 64.46 Q 867.07 64.46 876.04 65.93 Q 885.03 67.38 894.22 70.32 L 887.65 92.29 L 879.21 92.29 Q 880.35 82.04 875.25 77.29 Q 870.17 72.52 858.1 72.52 Q 848.26 72.52 842.18 75.95 Q 836.13 79.38 834.1 86.18 Q 832.23 92.36 834.73 95.6 Q 837.22 98.82 849.71 102.29 L 863.52 105.96 Q 876.35 109.41 880.39 116.74 Q 884.46 124.07 880.57 136.92 Q 876.05 151.97 863.31 159.81 Q 850.58 167.63 830.4 167.63 Q 820.68 167.63 811.58 165.95 Q 802.51 164.29 793.59 160.9 Z M 913.32 102.95 L 903.07 102.95 L 905.43 94.89 L 915.7 94.89 L 922.27 72.92 L 945.84 72.92 L 939.27 94.89 L 958.92 94.89 L 956.54 102.95 L 936.89 102.95 L 923.87 146.32 Q 922.12 152.25 921.8 155.23 Q 921.61 157.04 921.87 157.83 Q 922.7 160.09 926.56 160.09 Q 930.82 160.09 933.72 157.23 Q 936.62 154.38 938.57 148.37 L 948.51 148.37 Q 944.72 159.02 938.19 163.33 Q 931.69 167.63 918.9 167.63 Q 904.32 167.63 900.48 163.03 Q 897.98 160.09 898.62 153.97 Q 898.97 150.65 900.3 146.32 L 913.32 102.95 Z M 1014.95 107.34 Q 1015.17 103.36 1011.38 103.36 Q 1002.45 103.36 992.61 114.01 Q 988.03 118.94 983.1 135.39 Q 979.4 147.71 980.62 152.48 Q 981.87 157.23 988.2 157.23 Q 994.38 157.23 998.86 151.71 Q 1003.34 146.17 1007.05 133.79 L 1014.95 107.34 Z M 1038.69 97.03 L 1020.66 157.64 L 1029.52 157.51 L 1027.06 165.69 L 997.5 165.69 L 1000.17 156.7 Q 991.69 167.63 978.71 167.63 Q 965.86 167.63 961.02 159.15 Q 956.18 150.65 960.67 135.86 Q 965.09 121 979.23 108.15 Q 995.96 92.96 1016.2 92.96 Q 1036.17 92.96 1038.69 97.03 Z M 1064.7 102.95 L 1054.45 102.95 L 1056.81 94.89 L 1067.08 94.89 L 1073.65 72.92 L 1097.23 72.92 L 1090.65 94.89 L 1110.3 94.89 L 1107.92 102.95 L 1088.27 102.95 L 1075.25 146.32 Q 1073.5 152.25 1073.19 155.23 Q 1073 157.04 1073.26 157.83 Q 1074.08 160.09 1077.94 160.09 Q 1082.2 160.09 1085.1 157.23 Q 1088 154.38 1089.96 148.37 L 1099.89 148.37 Q 1096.1 159.02 1089.58 163.33 Q 1083.07 167.63 1070.29 167.63 Q 1055.71 167.63 1051.87 163.03 Q 1049.36 160.09 1050 153.97 Q 1050.35 150.65 1051.68 146.32 L 1064.7 102.95 Z M 1110.21 143.85 L 1117.74 143.85 Q 1117.57 144.85 1117.47 145.79 Q 1116.78 152.31 1120.3 156.21 Q 1123.83 160.09 1131.76 160.09 Q 1147.27 160.09 1150.14 150.43 Q 1150.55 149.18 1150.75 147.3 Q 1150.94 145.51 1149.44 143.53 Q 1147.95 141.53 1141.48 139.78 L 1132.49 137.33 Q 1122.31 134.6 1119.42 130.27 Q 1116.55 125.93 1117.11 120.6 Q 1117.35 118.34 1118.09 115.74 Q 1121.58 104.23 1131.25 98.6 Q 1140.95 92.96 1155.46 92.96 Q 1169.97 92.96 1185.38 97.22 L 1179.97 115.08 L 1172.44 115.08 Q 1172.79 113.82 1172.91 112.67 Q 1174.19 100.5 1159.12 100.5 Q 1144.01 100.5 1141.34 109.47 Q 1141.02 110.54 1140.86 112.07 Q 1140.4 116.4 1148.37 118.62 L 1157.3 121.07 Q 1170.19 124.6 1173.39 129.04 Q 1176.59 133.45 1175.98 139.18 Q 1175.74 141.53 1174.92 144.25 Q 1171.32 156.23 1161.06 161.94 Q 1150.81 167.63 1132.76 167.63 Q 1119.63 167.63 1104.34 163.63 L 1110.21 143.85 Z" fill="#240612" opacity="0.24"/>

    <!-- Controlled gold raised edge: small offset and thin stroke, not a full duplicate -->
    <path id="gold-raised-edge" d="M 192.22 125.33 Q 183.68 140.71 171.24 148.17 Q 158.79 155.63 141.62 155.63 Q 116.45 155.63 106.02 141.74 Q 95.58 127.84 102.68 104.08 Q 109.77 80.23 128.58 66.36 Q 147.41 52.46 172.58 52.46 Q 181.42 52.46 190.36 54.59 Q 199.3 56.72 208.7 61.05 L 201.4 85.5 L 192.96 85.5 Q 194.12 72.96 189.11 66.74 Q 184.12 60.52 172.86 60.52 Q 158.35 60.52 148.08 71.22 Q 137.84 81.89 131.18 104.08 Q 124.52 126.24 128.39 136.9 Q 132.28 147.56 146.92 147.56 Q 156.85 147.56 164.78 142.04 Q 172.74 136.52 178.97 125.33 L 192.22 125.33 Z M 229.96 62.84 Q 231.6 57.45 236.4 53.76 Q 241.22 50.05 246.63 50.05 Q 251.87 50.05 254.49 53.78 Q 256.39 56.53 256.01 60.18 Q 255.88 61.45 255.47 62.84 Q 253.92 68.1 249.1 71.81 Q 244.28 75.5 239.01 75.5 Q 233.62 75.5 231.02 71.83 Q 229.03 69.11 229.41 65.44 Q 229.55 64.18 229.96 62.84 Z M 230.92 145.64 L 241.04 145.64 L 238.66 153.69 L 204.96 153.69 L 223.75 90.95 L 213.69 90.95 L 216.07 82.89 L 249.7 82.89 L 230.92 145.64 Z M 275.63 90.95 L 265.38 90.95 L 267.74 82.89 L 278.01 82.89 L 284.58 60.92 L 308.15 60.92 L 301.58 82.89 L 321.23 82.89 L 318.85 90.95 L 299.2 90.95 L 286.18 134.32 Q 284.43 140.25 284.11 143.23 Q 283.92 145.04 284.18 145.83 Q 285.01 148.09 288.87 148.09 Q 293.13 148.09 296.03 145.23 Q 298.93 142.38 300.88 136.37 L 310.81 136.37 Q 307.03 147.02 300.5 151.33 Q 294 155.63 281.21 155.63 Q 266.63 155.63 262.79 151.03 Q 260.29 148.09 260.93 141.97 Q 261.28 138.65 262.61 134.32 L 275.63 90.95 Z M 346.3 171.87 L 335.9 90.95 L 328.23 90.95 L 330.68 82.89 L 359.6 82.89 L 368.24 151.37 Q 377.07 140.31 383.5 127.82 Q 389.95 115.33 397.55 91.08 L 388.11 91.01 L 390.49 82.96 L 409.6 82.89 Q 407.04 91.42 403.49 102.42 Q 394.73 129.44 386.02 141.97 Q 363.07 174.6 346.79 180.61 Q 337.57 184 324.78 184 Q 318.52 184 309.69 181.14 L 314.13 166.35 L 321.64 166.42 Q 321.2 168.02 321.06 169.34 Q 320.57 173.94 323.55 175.41 Q 324.89 176.07 327.7 176.48 Q 329.28 176.67 330.88 176.67 Q 338.28 176.67 346.3 171.87 Z M 456.9 153.69 L 459.28 145.64 L 472.48 145.64 L 497.11 63.37 L 469.87 63.37 L 465.21 79.1 L 456.09 79.1 L 463.5 54.25 L 562.07 54.25 L 554.66 79.1 L 545.67 79.1 L 550.32 63.37 L 522.87 63.37 L 498.24 145.64 L 511.5 145.64 L 509.12 153.69 L 456.9 153.69 Z M 573.02 62.84 Q 574.66 57.45 579.45 53.76 Q 584.28 50.05 589.69 50.05 Q 594.93 50.05 597.55 53.78 Q 599.45 56.53 599.07 60.18 Q 598.94 61.45 598.53 62.84 Q 596.98 68.1 592.16 71.81 Q 587.34 75.5 582.07 75.5 Q 576.68 75.5 574.08 71.83 Q 572.09 69.11 572.47 65.44 Q 572.61 64.18 573.02 62.84 Z M 573.98 145.64 L 584.1 145.64 L 581.72 153.69 L 548.02 153.69 L 566.81 90.95 L 556.75 90.95 L 559.13 82.89 L 592.76 82.89 L 573.98 145.64 Z M 658.28 98.28 Q 659.31 88.5 651.04 88.5 Q 644.71 88.5 640.35 94.47 Q 636 100.41 630.64 119.13 Q 630.64 119.13 632.12 119.13 Q 652.49 119.13 657.32 102.95 Q 658.06 100.41 658.28 98.28 Z M 628.21 127.05 Q 627.57 129.31 627.07 134.04 Q 625.66 148.09 639.32 148.09 Q 646.97 148.09 652.92 144.04 Q 658.89 139.97 662.49 132.25 L 673.55 132.25 Q 667.09 144.3 656.86 149.96 Q 646.65 155.63 631.33 155.63 Q 612.95 155.63 606.04 145.96 Q 601.24 139.18 602.36 128.46 Q 602.85 123.86 604.48 118.47 Q 609.74 100.67 622.75 90.82 Q 635.79 80.96 653.37 80.96 Q 666.09 80.96 674.39 85.92 Q 682.69 90.89 681.75 99.88 Q 681.56 101.67 680.95 103.61 Q 674.49 125.18 628.21 127.05 Z M 769.59 82.11 L 763.26 103.21 L 755.73 103.21 Q 756.07 101.82 756.2 100.61 Q 756.59 96.88 755.21 94.81 Q 753.37 92.02 748.3 92.02 Q 740.58 92.02 734.07 98.82 Q 727.56 105.61 723.97 117.66 L 713.2 153.69 L 689.6 153.69 L 708.39 90.95 L 697.6 90.95 L 699.98 82.89 L 734.34 82.89 L 730.63 95.49 Q 736.27 88.1 743.03 84.54 Q 749.8 80.96 758.07 80.96 Q 760.12 80.96 762.98 81.28 Q 765.85 81.57 769.59 82.11 Z M 803.59 148.9 L 810.67 125.33 L 819.14 125.33 Q 817.68 136.52 823.22 142.04 Q 828.78 147.56 841.5 147.56 Q 851.84 147.56 858.41 143.63 Q 864.98 139.71 867.25 132.1 Q 869.07 126.12 866.37 122.79 Q 863.7 119.47 853.09 116.59 L 839.28 112.92 Q 825.82 109.19 821.89 102.59 Q 817.96 95.96 821.57 83.7 Q 826.07 68.91 838.35 60.69 Q 850.64 52.46 868.35 52.46 Q 877.07 52.46 886.04 53.93 Q 895.03 55.38 904.22 58.32 L 897.65 80.29 L 889.21 80.29 Q 890.35 70.04 885.25 65.29 Q 880.17 60.52 868.1 60.52 Q 858.26 60.52 852.18 63.95 Q 846.13 67.38 844.1 74.18 Q 842.23 80.36 844.73 83.6 Q 847.22 86.82 859.71 90.29 L 873.52 93.96 Q 886.35 97.41 890.39 104.74 Q 894.46 112.07 890.57 124.92 Q 886.05 139.97 873.31 147.81 Q 860.58 155.63 840.4 155.63 Q 830.68 155.63 821.58 153.95 Q 812.51 152.29 803.59 148.9 Z M 923.32 90.95 L 913.07 90.95 L 915.43 82.89 L 925.7 82.89 L 932.27 60.92 L 955.84 60.92 L 949.27 82.89 L 968.92 82.89 L 966.54 90.95 L 946.89 90.95 L 933.87 134.32 Q 932.12 140.25 931.8 143.23 Q 931.61 145.04 931.87 145.83 Q 932.7 148.09 936.56 148.09 Q 940.82 148.09 943.72 145.23 Q 946.62 142.38 948.57 136.37 L 958.51 136.37 Q 954.72 147.02 948.19 151.33 Q 941.69 155.63 928.9 155.63 Q 914.32 155.63 910.48 151.03 Q 907.98 148.09 908.62 141.97 Q 908.97 138.65 910.3 134.32 L 923.32 90.95 Z M 1024.95 95.34 Q 1025.17 91.36 1021.38 91.36 Q 1012.45 91.36 1002.61 102.01 Q 998.03 106.94 993.1 123.39 Q 989.4 135.71 990.62 140.48 Q 991.87 145.23 998.2 145.23 Q 1004.38 145.23 1008.86 139.71 Q 1013.34 134.17 1017.05 121.79 L 1024.95 95.34 Z M 1048.69 85.03 L 1030.66 145.64 L 1039.52 145.51 L 1037.06 153.69 L 1007.5 153.69 L 1010.17 144.7 Q 1001.69 155.63 988.71 155.63 Q 975.86 155.63 971.02 147.15 Q 966.18 138.65 970.67 123.86 Q 975.09 109 989.23 96.15 Q 1005.96 80.96 1026.2 80.96 Q 1046.17 80.96 1048.69 85.03 Z M 1074.7 90.95 L 1064.45 90.95 L 1066.81 82.89 L 1077.08 82.89 L 1083.65 60.92 L 1107.23 60.92 L 1100.65 82.89 L 1120.3 82.89 L 1117.92 90.95 L 1098.27 90.95 L 1085.25 134.32 Q 1083.5 140.25 1083.19 143.23 Q 1083 145.04 1083.26 145.83 Q 1084.08 148.09 1087.94 148.09 Q 1092.2 148.09 1095.1 145.23 Q 1098 142.38 1099.96 136.37 L 1109.89 136.37 Q 1106.1 147.02 1099.58 151.33 Q 1093.07 155.63 1080.29 155.63 Q 1065.71 155.63 1061.87 151.03 Q 1059.36 148.09 1060 141.97 Q 1060.35 138.65 1061.68 134.32 L 1074.7 90.95 Z M 1120.21 131.85 L 1127.74 131.85 Q 1127.57 132.85 1127.47 133.79 Q 1126.78 140.31 1130.3 144.21 Q 1133.83 148.09 1141.76 148.09 Q 1157.27 148.09 1160.14 138.43 Q 1160.55 137.18 1160.75 135.3 Q 1160.94 133.51 1159.44 131.53 Q 1157.95 129.53 1151.48 127.78 L 1142.49 125.33 Q 1132.31 122.6 1129.42 118.27 Q 1126.55 113.93 1127.11 108.6 Q 1127.35 106.34 1128.09 103.74 Q 1131.58 92.23 1141.25 86.6 Q 1150.95 80.96 1165.46 80.96 Q 1179.97 80.96 1195.38 85.22 L 1189.97 103.08 L 1182.44 103.08 Q 1182.79 101.82 1182.91 100.67 Q 1184.19 88.5 1169.12 88.5 Q 1154.01 88.5 1151.34 97.47 Q 1151.02 98.54 1150.86 100.07 Q 1150.4 104.4 1158.37 106.62 L 1167.3 109.07 Q 1180.19 112.6 1183.39 117.04 Q 1186.59 121.45 1185.98 127.18 Q 1185.74 129.53 1184.92 132.25 Q 1181.32 144.23 1171.06 149.94 Q 1160.81 155.63 1142.76 155.63 Q 1129.63 155.63 1114.34 151.63 L 1120.21 131.85 Z" fill="url(#gold-edge)" opacity="0.98"/>
    <path id="gold-edge-rim" d="M 185.22 132.33 Q 176.68 147.71 164.24 155.17 Q 151.79 162.63 134.62 162.63 Q 109.45 162.63 99.02 148.74 Q 88.58 134.84 95.68 111.08 Q 102.77 87.23 121.58 73.36 Q 140.41 59.46 165.58 59.46 Q 174.42 59.46 183.36 61.59 Q 192.3 63.72 201.7 68.05 L 194.4 92.5 L 185.96 92.5 Q 187.12 79.96 182.11 73.74 Q 177.12 67.52 165.86 67.52 Q 151.35 67.52 141.08 78.22 Q 130.84 88.89 124.18 111.08 Q 117.52 133.24 121.39 143.9 Q 125.28 154.56 139.92 154.56 Q 149.85 154.56 157.78 149.04 Q 165.74 143.52 171.97 132.33 L 185.22 132.33 Z M 222.96 69.84 Q 224.6 64.45 229.4 60.76 Q 234.22 57.05 239.63 57.05 Q 244.87 57.05 247.49 60.78 Q 249.39 63.53 249.01 67.18 Q 248.88 68.45 248.47 69.84 Q 246.92 75.1 242.1 78.81 Q 237.28 82.5 232.01 82.5 Q 226.62 82.5 224.02 78.83 Q 222.03 76.11 222.41 72.44 Q 222.55 71.18 222.96 69.84 Z M 223.92 152.64 L 234.04 152.64 L 231.66 160.69 L 197.96 160.69 L 216.75 97.95 L 206.69 97.95 L 209.07 89.89 L 242.7 89.89 L 223.92 152.64 Z M 268.63 97.95 L 258.38 97.95 L 260.74 89.89 L 271.01 89.89 L 277.58 67.92 L 301.15 67.92 L 294.58 89.89 L 314.23 89.89 L 311.85 97.95 L 292.2 97.95 L 279.18 141.32 Q 277.43 147.25 277.11 150.23 Q 276.92 152.04 277.18 152.83 Q 278.01 155.09 281.87 155.09 Q 286.13 155.09 289.03 152.23 Q 291.93 149.38 293.88 143.37 L 303.81 143.37 Q 300.03 154.02 293.5 158.33 Q 287 162.63 274.21 162.63 Q 259.63 162.63 255.79 158.03 Q 253.29 155.09 253.93 148.97 Q 254.28 145.65 255.61 141.32 L 268.63 97.95 Z M 339.3 178.87 L 328.9 97.95 L 321.23 97.95 L 323.68 89.89 L 352.6 89.89 L 361.24 158.37 Q 370.07 147.31 376.5 134.82 Q 382.95 122.33 390.55 98.08 L 381.11 98.01 L 383.49 89.96 L 402.6 89.89 Q 400.04 98.42 396.49 109.42 Q 387.73 136.44 379.02 148.97 Q 356.07 181.6 339.79 187.61 Q 330.57 191 317.78 191 Q 311.52 191 302.69 188.14 L 307.13 173.35 L 314.64 173.42 Q 314.2 175.02 314.06 176.34 Q 313.57 180.94 316.55 182.41 Q 317.89 183.07 320.7 183.48 Q 322.28 183.67 323.88 183.67 Q 331.28 183.67 339.3 178.87 Z M 449.9 160.69 L 452.28 152.64 L 465.48 152.64 L 490.11 70.37 L 462.87 70.37 L 458.21 86.1 L 449.09 86.1 L 456.5 61.25 L 555.07 61.25 L 547.66 86.1 L 538.67 86.1 L 543.32 70.37 L 515.87 70.37 L 491.24 152.64 L 504.5 152.64 L 502.12 160.69 L 449.9 160.69 Z M 566.02 69.84 Q 567.66 64.45 572.45 60.76 Q 577.28 57.05 582.69 57.05 Q 587.93 57.05 590.55 60.78 Q 592.45 63.53 592.07 67.18 Q 591.94 68.45 591.53 69.84 Q 589.98 75.1 585.16 78.81 Q 580.34 82.5 575.07 82.5 Q 569.68 82.5 567.08 78.83 Q 565.09 76.11 565.47 72.44 Q 565.61 71.18 566.02 69.84 Z M 566.98 152.64 L 577.1 152.64 L 574.72 160.69 L 541.02 160.69 L 559.81 97.95 L 549.75 97.95 L 552.13 89.89 L 585.76 89.89 L 566.98 152.64 Z M 651.28 105.28 Q 652.31 95.5 644.04 95.5 Q 637.71 95.5 633.35 101.47 Q 629 107.41 623.64 126.13 Q 623.64 126.13 625.12 126.13 Q 645.49 126.13 650.32 109.95 Q 651.06 107.41 651.28 105.28 Z M 621.21 134.05 Q 620.57 136.31 620.07 141.04 Q 618.66 155.09 632.32 155.09 Q 639.97 155.09 645.92 151.04 Q 651.89 146.97 655.49 139.25 L 666.55 139.25 Q 660.09 151.3 649.86 156.96 Q 639.65 162.63 624.33 162.63 Q 605.95 162.63 599.04 152.96 Q 594.24 146.18 595.36 135.46 Q 595.85 130.86 597.48 125.47 Q 602.74 107.67 615.75 97.82 Q 628.79 87.96 646.37 87.96 Q 659.09 87.96 667.39 92.92 Q 675.69 97.89 674.75 106.88 Q 674.56 108.67 673.95 110.61 Q 667.49 132.18 621.21 134.05 Z M 762.59 89.11 L 756.26 110.21 L 748.73 110.21 Q 749.07 108.82 749.2 107.61 Q 749.59 103.88 748.21 101.81 Q 746.37 99.02 741.3 99.02 Q 733.58 99.02 727.07 105.82 Q 720.56 112.61 716.97 124.66 L 706.2 160.69 L 682.6 160.69 L 701.39 97.95 L 690.6 97.95 L 692.98 89.89 L 727.34 89.89 L 723.63 102.49 Q 729.27 95.1 736.03 91.54 Q 742.8 87.96 751.07 87.96 Q 753.12 87.96 755.98 88.28 Q 758.85 88.57 762.59 89.11 Z M 796.59 155.9 L 803.67 132.33 L 812.14 132.33 Q 810.68 143.52 816.22 149.04 Q 821.78 154.56 834.5 154.56 Q 844.84 154.56 851.41 150.63 Q 857.98 146.71 860.25 139.1 Q 862.07 133.12 859.37 129.79 Q 856.7 126.47 846.09 123.59 L 832.28 119.92 Q 818.82 116.19 814.89 109.59 Q 810.96 102.96 814.57 90.7 Q 819.07 75.91 831.35 67.69 Q 843.64 59.46 861.35 59.46 Q 870.07 59.46 879.04 60.93 Q 888.03 62.38 897.22 65.32 L 890.65 87.29 L 882.21 87.29 Q 883.35 77.04 878.25 72.29 Q 873.17 67.52 861.1 67.52 Q 851.26 67.52 845.18 70.95 Q 839.13 74.38 837.1 81.18 Q 835.23 87.36 837.73 90.6 Q 840.22 93.82 852.71 97.29 L 866.52 100.96 Q 879.35 104.41 883.39 111.74 Q 887.46 119.07 883.57 131.92 Q 879.05 146.97 866.31 154.81 Q 853.58 162.63 833.4 162.63 Q 823.68 162.63 814.58 160.95 Q 805.51 159.29 796.59 155.9 Z M 916.32 97.95 L 906.07 97.95 L 908.43 89.89 L 918.7 89.89 L 925.27 67.92 L 948.84 67.92 L 942.27 89.89 L 961.92 89.89 L 959.54 97.95 L 939.89 97.95 L 926.87 141.32 Q 925.12 147.25 924.8 150.23 Q 924.61 152.04 924.87 152.83 Q 925.7 155.09 929.56 155.09 Q 933.82 155.09 936.72 152.23 Q 939.62 149.38 941.57 143.37 L 951.51 143.37 Q 947.72 154.02 941.19 158.33 Q 934.69 162.63 921.9 162.63 Q 907.32 162.63 903.48 158.03 Q 900.98 155.09 901.62 148.97 Q 901.97 145.65 903.3 141.32 L 916.32 97.95 Z M 1017.95 102.34 Q 1018.17 98.36 1014.38 98.36 Q 1005.45 98.36 995.61 109.01 Q 991.03 113.94 986.1 130.39 Q 982.4 142.71 983.62 147.48 Q 984.87 152.23 991.2 152.23 Q 997.38 152.23 1001.86 146.71 Q 1006.34 141.17 1010.05 128.79 L 1017.95 102.34 Z M 1041.69 92.03 L 1023.66 152.64 L 1032.52 152.51 L 1030.06 160.69 L 1000.5 160.69 L 1003.17 151.7 Q 994.69 162.63 981.71 162.63 Q 968.86 162.63 964.02 154.15 Q 959.18 145.65 963.67 130.86 Q 968.09 116 982.23 103.15 Q 998.96 87.96 1019.2 87.96 Q 1039.17 87.96 1041.69 92.03 Z M 1067.7 97.95 L 1057.45 97.95 L 1059.81 89.89 L 1070.08 89.89 L 1076.65 67.92 L 1100.23 67.92 L 1093.65 89.89 L 1113.3 89.89 L 1110.92 97.95 L 1091.27 97.95 L 1078.25 141.32 Q 1076.5 147.25 1076.19 150.23 Q 1076 152.04 1076.26 152.83 Q 1077.08 155.09 1080.94 155.09 Q 1085.2 155.09 1088.1 152.23 Q 1091 149.38 1092.96 143.37 L 1102.89 143.37 Q 1099.1 154.02 1092.58 158.33 Q 1086.07 162.63 1073.29 162.63 Q 1058.71 162.63 1054.87 158.03 Q 1052.36 155.09 1053 148.97 Q 1053.35 145.65 1054.68 141.32 L 1067.7 97.95 Z M 1113.21 138.85 L 1120.74 138.85 Q 1120.57 139.85 1120.47 140.79 Q 1119.78 147.31 1123.3 151.21 Q 1126.83 155.09 1134.76 155.09 Q 1150.27 155.09 1153.14 145.43 Q 1153.55 144.18 1153.75 142.3 Q 1153.94 140.51 1152.44 138.53 Q 1150.95 136.53 1144.48 134.78 L 1135.49 132.33 Q 1125.31 129.6 1122.42 125.27 Q 1119.55 120.93 1120.11 115.6 Q 1120.35 113.34 1121.09 110.74 Q 1124.58 99.23 1134.25 93.6 Q 1143.95 87.96 1158.46 87.96 Q 1172.97 87.96 1188.38 92.22 L 1182.97 110.08 L 1175.44 110.08 Q 1175.79 108.82 1175.91 107.67 Q 1177.19 95.5 1162.12 95.5 Q 1147.01 95.5 1144.34 104.47 Q 1144.02 105.54 1143.86 107.07 Q 1143.4 111.4 1151.37 113.62 L 1160.3 116.07 Q 1173.19 119.6 1176.39 124.04 Q 1179.59 128.45 1178.98 134.18 Q 1178.74 136.53 1177.92 139.25 Q 1174.32 151.23 1164.06 156.94 Q 1153.81 162.63 1135.76 162.63 Q 1122.63 162.63 1107.34 158.63 L 1113.21 138.85 Z" fill="none" stroke="url(#gold-edge)" stroke-width="5.2" stroke-linejoin="round"/>

    <!-- Burgundy front face -->
    <path id="burgundy-front-face" d="M 185.22 132.33 Q 176.68 147.71 164.24 155.17 Q 151.79 162.63 134.62 162.63 Q 109.45 162.63 99.02 148.74 Q 88.58 134.84 95.68 111.08 Q 102.77 87.23 121.58 73.36 Q 140.41 59.46 165.58 59.46 Q 174.42 59.46 183.36 61.59 Q 192.3 63.72 201.7 68.05 L 194.4 92.5 L 185.96 92.5 Q 187.12 79.96 182.11 73.74 Q 177.12 67.52 165.86 67.52 Q 151.35 67.52 141.08 78.22 Q 130.84 88.89 124.18 111.08 Q 117.52 133.24 121.39 143.9 Q 125.28 154.56 139.92 154.56 Q 149.85 154.56 157.78 149.04 Q 165.74 143.52 171.97 132.33 L 185.22 132.33 Z M 222.96 69.84 Q 224.6 64.45 229.4 60.76 Q 234.22 57.05 239.63 57.05 Q 244.87 57.05 247.49 60.78 Q 249.39 63.53 249.01 67.18 Q 248.88 68.45 248.47 69.84 Q 246.92 75.1 242.1 78.81 Q 237.28 82.5 232.01 82.5 Q 226.62 82.5 224.02 78.83 Q 222.03 76.11 222.41 72.44 Q 222.55 71.18 222.96 69.84 Z M 223.92 152.64 L 234.04 152.64 L 231.66 160.69 L 197.96 160.69 L 216.75 97.95 L 206.69 97.95 L 209.07 89.89 L 242.7 89.89 L 223.92 152.64 Z M 268.63 97.95 L 258.38 97.95 L 260.74 89.89 L 271.01 89.89 L 277.58 67.92 L 301.15 67.92 L 294.58 89.89 L 314.23 89.89 L 311.85 97.95 L 292.2 97.95 L 279.18 141.32 Q 277.43 147.25 277.11 150.23 Q 276.92 152.04 277.18 152.83 Q 278.01 155.09 281.87 155.09 Q 286.13 155.09 289.03 152.23 Q 291.93 149.38 293.88 143.37 L 303.81 143.37 Q 300.03 154.02 293.5 158.33 Q 287 162.63 274.21 162.63 Q 259.63 162.63 255.79 158.03 Q 253.29 155.09 253.93 148.97 Q 254.28 145.65 255.61 141.32 L 268.63 97.95 Z M 339.3 178.87 L 328.9 97.95 L 321.23 97.95 L 323.68 89.89 L 352.6 89.89 L 361.24 158.37 Q 370.07 147.31 376.5 134.82 Q 382.95 122.33 390.55 98.08 L 381.11 98.01 L 383.49 89.96 L 402.6 89.89 Q 400.04 98.42 396.49 109.42 Q 387.73 136.44 379.02 148.97 Q 356.07 181.6 339.79 187.61 Q 330.57 191 317.78 191 Q 311.52 191 302.69 188.14 L 307.13 173.35 L 314.64 173.42 Q 314.2 175.02 314.06 176.34 Q 313.57 180.94 316.55 182.41 Q 317.89 183.07 320.7 183.48 Q 322.28 183.67 323.88 183.67 Q 331.28 183.67 339.3 178.87 Z M 449.9 160.69 L 452.28 152.64 L 465.48 152.64 L 490.11 70.37 L 462.87 70.37 L 458.21 86.1 L 449.09 86.1 L 456.5 61.25 L 555.07 61.25 L 547.66 86.1 L 538.67 86.1 L 543.32 70.37 L 515.87 70.37 L 491.24 152.64 L 504.5 152.64 L 502.12 160.69 L 449.9 160.69 Z M 566.02 69.84 Q 567.66 64.45 572.45 60.76 Q 577.28 57.05 582.69 57.05 Q 587.93 57.05 590.55 60.78 Q 592.45 63.53 592.07 67.18 Q 591.94 68.45 591.53 69.84 Q 589.98 75.1 585.16 78.81 Q 580.34 82.5 575.07 82.5 Q 569.68 82.5 567.08 78.83 Q 565.09 76.11 565.47 72.44 Q 565.61 71.18 566.02 69.84 Z M 566.98 152.64 L 577.1 152.64 L 574.72 160.69 L 541.02 160.69 L 559.81 97.95 L 549.75 97.95 L 552.13 89.89 L 585.76 89.89 L 566.98 152.64 Z M 651.28 105.28 Q 652.31 95.5 644.04 95.5 Q 637.71 95.5 633.35 101.47 Q 629 107.41 623.64 126.13 Q 623.64 126.13 625.12 126.13 Q 645.49 126.13 650.32 109.95 Q 651.06 107.41 651.28 105.28 Z M 621.21 134.05 Q 620.57 136.31 620.07 141.04 Q 618.66 155.09 632.32 155.09 Q 639.97 155.09 645.92 151.04 Q 651.89 146.97 655.49 139.25 L 666.55 139.25 Q 660.09 151.3 649.86 156.96 Q 639.65 162.63 624.33 162.63 Q 605.95 162.63 599.04 152.96 Q 594.24 146.18 595.36 135.46 Q 595.85 130.86 597.48 125.47 Q 602.74 107.67 615.75 97.82 Q 628.79 87.96 646.37 87.96 Q 659.09 87.96 667.39 92.92 Q 675.69 97.89 674.75 106.88 Q 674.56 108.67 673.95 110.61 Q 667.49 132.18 621.21 134.05 Z M 762.59 89.11 L 756.26 110.21 L 748.73 110.21 Q 749.07 108.82 749.2 107.61 Q 749.59 103.88 748.21 101.81 Q 746.37 99.02 741.3 99.02 Q 733.58 99.02 727.07 105.82 Q 720.56 112.61 716.97 124.66 L 706.2 160.69 L 682.6 160.69 L 701.39 97.95 L 690.6 97.95 L 692.98 89.89 L 727.34 89.89 L 723.63 102.49 Q 729.27 95.1 736.03 91.54 Q 742.8 87.96 751.07 87.96 Q 753.12 87.96 755.98 88.28 Q 758.85 88.57 762.59 89.11 Z M 796.59 155.9 L 803.67 132.33 L 812.14 132.33 Q 810.68 143.52 816.22 149.04 Q 821.78 154.56 834.5 154.56 Q 844.84 154.56 851.41 150.63 Q 857.98 146.71 860.25 139.1 Q 862.07 133.12 859.37 129.79 Q 856.7 126.47 846.09 123.59 L 832.28 119.92 Q 818.82 116.19 814.89 109.59 Q 810.96 102.96 814.57 90.7 Q 819.07 75.91 831.35 67.69 Q 843.64 59.46 861.35 59.46 Q 870.07 59.46 879.04 60.93 Q 888.03 62.38 897.22 65.32 L 890.65 87.29 L 882.21 87.29 Q 883.35 77.04 878.25 72.29 Q 873.17 67.52 861.1 67.52 Q 851.26 67.52 845.18 70.95 Q 839.13 74.38 837.1 81.18 Q 835.23 87.36 837.73 90.6 Q 840.22 93.82 852.71 97.29 L 866.52 100.96 Q 879.35 104.41 883.39 111.74 Q 887.46 119.07 883.57 131.92 Q 879.05 146.97 866.31 154.81 Q 853.58 162.63 833.4 162.63 Q 823.68 162.63 814.58 160.95 Q 805.51 159.29 796.59 155.9 Z M 916.32 97.95 L 906.07 97.95 L 908.43 89.89 L 918.7 89.89 L 925.27 67.92 L 948.84 67.92 L 942.27 89.89 L 961.92 89.89 L 959.54 97.95 L 939.89 97.95 L 926.87 141.32 Q 925.12 147.25 924.8 150.23 Q 924.61 152.04 924.87 152.83 Q 925.7 155.09 929.56 155.09 Q 933.82 155.09 936.72 152.23 Q 939.62 149.38 941.57 143.37 L 951.51 143.37 Q 947.72 154.02 941.19 158.33 Q 934.69 162.63 921.9 162.63 Q 907.32 162.63 903.48 158.03 Q 900.98 155.09 901.62 148.97 Q 901.97 145.65 903.3 141.32 L 916.32 97.95 Z M 1017.95 102.34 Q 1018.17 98.36 1014.38 98.36 Q 1005.45 98.36 995.61 109.01 Q 991.03 113.94 986.1 130.39 Q 982.4 142.71 983.62 147.48 Q 984.87 152.23 991.2 152.23 Q 997.38 152.23 1001.86 146.71 Q 1006.34 141.17 1010.05 128.79 L 1017.95 102.34 Z M 1041.69 92.03 L 1023.66 152.64 L 1032.52 152.51 L 1030.06 160.69 L 1000.5 160.69 L 1003.17 151.7 Q 994.69 162.63 981.71 162.63 Q 968.86 162.63 964.02 154.15 Q 959.18 145.65 963.67 130.86 Q 968.09 116 982.23 103.15 Q 998.96 87.96 1019.2 87.96 Q 1039.17 87.96 1041.69 92.03 Z M 1067.7 97.95 L 1057.45 97.95 L 1059.81 89.89 L 1070.08 89.89 L 1076.65 67.92 L 1100.23 67.92 L 1093.65 89.89 L 1113.3 89.89 L 1110.92 97.95 L 1091.27 97.95 L 1078.25 141.32 Q 1076.5 147.25 1076.19 150.23 Q 1076 152.04 1076.26 152.83 Q 1077.08 155.09 1080.94 155.09 Q 1085.2 155.09 1088.1 152.23 Q 1091 149.38 1092.96 143.37 L 1102.89 143.37 Q 1099.1 154.02 1092.58 158.33 Q 1086.07 162.63 1073.29 162.63 Q 1058.71 162.63 1054.87 158.03 Q 1052.36 155.09 1053 148.97 Q 1053.35 145.65 1054.68 141.32 L 1067.7 97.95 Z M 1113.21 138.85 L 1120.74 138.85 Q 1120.57 139.85 1120.47 140.79 Q 1119.78 147.31 1123.3 151.21 Q 1126.83 155.09 1134.76 155.09 Q 1150.27 155.09 1153.14 145.43 Q 1153.55 144.18 1153.75 142.3 Q 1153.94 140.51 1152.44 138.53 Q 1150.95 136.53 1144.48 134.78 L 1135.49 132.33 Q 1125.31 129.6 1122.42 125.27 Q 1119.55 120.93 1120.11 115.6 Q 1120.35 113.34 1121.09 110.74 Q 1124.58 99.23 1134.25 93.6 Q 1143.95 87.96 1158.46 87.96 Q 1172.97 87.96 1188.38 92.22 L 1182.97 110.08 L 1175.44 110.08 Q 1175.79 108.82 1175.91 107.67 Q 1177.19 95.5 1162.12 95.5 Q 1147.01 95.5 1144.34 104.47 Q 1144.02 105.54 1143.86 107.07 Q 1143.4 111.4 1151.37 113.62 L 1160.3 116.07 Q 1173.19 119.6 1176.39 124.04 Q 1179.59 128.45 1178.98 134.18 Q 1178.74 136.53 1177.92 139.25 Q 1174.32 151.23 1164.06 156.94 Q 1153.81 162.63 1135.76 162.63 Q 1122.63 162.63 1107.34 158.63 L 1113.21 138.85 Z" fill="url(#maroon-face)"/>

    <!-- Subtle dimensional light over the face -->
    <path id="front-face-light" d="M 185.22 132.33 Q 176.68 147.71 164.24 155.17 Q 151.79 162.63 134.62 162.63 Q 109.45 162.63 99.02 148.74 Q 88.58 134.84 95.68 111.08 Q 102.77 87.23 121.58 73.36 Q 140.41 59.46 165.58 59.46 Q 174.42 59.46 183.36 61.59 Q 192.3 63.72 201.7 68.05 L 194.4 92.5 L 185.96 92.5 Q 187.12 79.96 182.11 73.74 Q 177.12 67.52 165.86 67.52 Q 151.35 67.52 141.08 78.22 Q 130.84 88.89 124.18 111.08 Q 117.52 133.24 121.39 143.9 Q 125.28 154.56 139.92 154.56 Q 149.85 154.56 157.78 149.04 Q 165.74 143.52 171.97 132.33 L 185.22 132.33 Z M 222.96 69.84 Q 224.6 64.45 229.4 60.76 Q 234.22 57.05 239.63 57.05 Q 244.87 57.05 247.49 60.78 Q 249.39 63.53 249.01 67.18 Q 248.88 68.45 248.47 69.84 Q 246.92 75.1 242.1 78.81 Q 237.28 82.5 232.01 82.5 Q 226.62 82.5 224.02 78.83 Q 222.03 76.11 222.41 72.44 Q 222.55 71.18 222.96 69.84 Z M 223.92 152.64 L 234.04 152.64 L 231.66 160.69 L 197.96 160.69 L 216.75 97.95 L 206.69 97.95 L 209.07 89.89 L 242.7 89.89 L 223.92 152.64 Z M 268.63 97.95 L 258.38 97.95 L 260.74 89.89 L 271.01 89.89 L 277.58 67.92 L 301.15 67.92 L 294.58 89.89 L 314.23 89.89 L 311.85 97.95 L 292.2 97.95 L 279.18 141.32 Q 277.43 147.25 277.11 150.23 Q 276.92 152.04 277.18 152.83 Q 278.01 155.09 281.87 155.09 Q 286.13 155.09 289.03 152.23 Q 291.93 149.38 293.88 143.37 L 303.81 143.37 Q 300.03 154.02 293.5 158.33 Q 287 162.63 274.21 162.63 Q 259.63 162.63 255.79 158.03 Q 253.29 155.09 253.93 148.97 Q 254.28 145.65 255.61 141.32 L 268.63 97.95 Z M 339.3 178.87 L 328.9 97.95 L 321.23 97.95 L 323.68 89.89 L 352.6 89.89 L 361.24 158.37 Q 370.07 147.31 376.5 134.82 Q 382.95 122.33 390.55 98.08 L 381.11 98.01 L 383.49 89.96 L 402.6 89.89 Q 400.04 98.42 396.49 109.42 Q 387.73 136.44 379.02 148.97 Q 356.07 181.6 339.79 187.61 Q 330.57 191 317.78 191 Q 311.52 191 302.69 188.14 L 307.13 173.35 L 314.64 173.42 Q 314.2 175.02 314.06 176.34 Q 313.57 180.94 316.55 182.41 Q 317.89 183.07 320.7 183.48 Q 322.28 183.67 323.88 183.67 Q 331.28 183.67 339.3 178.87 Z M 449.9 160.69 L 452.28 152.64 L 465.48 152.64 L 490.11 70.37 L 462.87 70.37 L 458.21 86.1 L 449.09 86.1 L 456.5 61.25 L 555.07 61.25 L 547.66 86.1 L 538.67 86.1 L 543.32 70.37 L 515.87 70.37 L 491.24 152.64 L 504.5 152.64 L 502.12 160.69 L 449.9 160.69 Z M 566.02 69.84 Q 567.66 64.45 572.45 60.76 Q 577.28 57.05 582.69 57.05 Q 587.93 57.05 590.55 60.78 Q 592.45 63.53 592.07 67.18 Q 591.94 68.45 591.53 69.84 Q 589.98 75.1 585.16 78.81 Q 580.34 82.5 575.07 82.5 Q 569.68 82.5 567.08 78.83 Q 565.09 76.11 565.47 72.44 Q 565.61 71.18 566.02 69.84 Z M 566.98 152.64 L 577.1 152.64 L 574.72 160.69 L 541.02 160.69 L 559.81 97.95 L 549.75 97.95 L 552.13 89.89 L 585.76 89.89 L 566.98 152.64 Z M 651.28 105.28 Q 652.31 95.5 644.04 95.5 Q 637.71 95.5 633.35 101.47 Q 629 107.41 623.64 126.13 Q 623.64 126.13 625.12 126.13 Q 645.49 126.13 650.32 109.95 Q 651.06 107.41 651.28 105.28 Z M 621.21 134.05 Q 620.57 136.31 620.07 141.04 Q 618.66 155.09 632.32 155.09 Q 639.97 155.09 645.92 151.04 Q 651.89 146.97 655.49 139.25 L 666.55 139.25 Q 660.09 151.3 649.86 156.96 Q 639.65 162.63 624.33 162.63 Q 605.95 162.63 599.04 152.96 Q 594.24 146.18 595.36 135.46 Q 595.85 130.86 597.48 125.47 Q 602.74 107.67 615.75 97.82 Q 628.79 87.96 646.37 87.96 Q 659.09 87.96 667.39 92.92 Q 675.69 97.89 674.75 106.88 Q 674.56 108.67 673.95 110.61 Q 667.49 132.18 621.21 134.05 Z M 762.59 89.11 L 756.26 110.21 L 748.73 110.21 Q 749.07 108.82 749.2 107.61 Q 749.59 103.88 748.21 101.81 Q 746.37 99.02 741.3 99.02 Q 733.58 99.02 727.07 105.82 Q 720.56 112.61 716.97 124.66 L 706.2 160.69 L 682.6 160.69 L 701.39 97.95 L 690.6 97.95 L 692.98 89.89 L 727.34 89.89 L 723.63 102.49 Q 729.27 95.1 736.03 91.54 Q 742.8 87.96 751.07 87.96 Q 753.12 87.96 755.98 88.28 Q 758.85 88.57 762.59 89.11 Z M 796.59 155.9 L 803.67 132.33 L 812.14 132.33 Q 810.68 143.52 816.22 149.04 Q 821.78 154.56 834.5 154.56 Q 844.84 154.56 851.41 150.63 Q 857.98 146.71 860.25 139.1 Q 862.07 133.12 859.37 129.79 Q 856.7 126.47 846.09 123.59 L 832.28 119.92 Q 818.82 116.19 814.89 109.59 Q 810.96 102.96 814.57 90.7 Q 819.07 75.91 831.35 67.69 Q 843.64 59.46 861.35 59.46 Q 870.07 59.46 879.04 60.93 Q 888.03 62.38 897.22 65.32 L 890.65 87.29 L 882.21 87.29 Q 883.35 77.04 878.25 72.29 Q 873.17 67.52 861.1 67.52 Q 851.26 67.52 845.18 70.95 Q 839.13 74.38 837.1 81.18 Q 835.23 87.36 837.73 90.6 Q 840.22 93.82 852.71 97.29 L 866.52 100.96 Q 879.35 104.41 883.39 111.74 Q 887.46 119.07 883.57 131.92 Q 879.05 146.97 866.31 154.81 Q 853.58 162.63 833.4 162.63 Q 823.68 162.63 814.58 160.95 Q 805.51 159.29 796.59 155.9 Z M 916.32 97.95 L 906.07 97.95 L 908.43 89.89 L 918.7 89.89 L 925.27 67.92 L 948.84 67.92 L 942.27 89.89 L 961.92 89.89 L 959.54 97.95 L 939.89 97.95 L 926.87 141.32 Q 925.12 147.25 924.8 150.23 Q 924.61 152.04 924.87 152.83 Q 925.7 155.09 929.56 155.09 Q 933.82 155.09 936.72 152.23 Q 939.62 149.38 941.57 143.37 L 951.51 143.37 Q 947.72 154.02 941.19 158.33 Q 934.69 162.63 921.9 162.63 Q 907.32 162.63 903.48 158.03 Q 900.98 155.09 901.62 148.97 Q 901.97 145.65 903.3 141.32 L 916.32 97.95 Z M 1017.95 102.34 Q 1018.17 98.36 1014.38 98.36 Q 1005.45 98.36 995.61 109.01 Q 991.03 113.94 986.1 130.39 Q 982.4 142.71 983.62 147.48 Q 984.87 152.23 991.2 152.23 Q 997.38 152.23 1001.86 146.71 Q 1006.34 141.17 1010.05 128.79 L 1017.95 102.34 Z M 1041.69 92.03 L 1023.66 152.64 L 1032.52 152.51 L 1030.06 160.69 L 1000.5 160.69 L 1003.17 151.7 Q 994.69 162.63 981.71 162.63 Q 968.86 162.63 964.02 154.15 Q 959.18 145.65 963.67 130.86 Q 968.09 116 982.23 103.15 Q 998.96 87.96 1019.2 87.96 Q 1039.17 87.96 1041.69 92.03 Z M 1067.7 97.95 L 1057.45 97.95 L 1059.81 89.89 L 1070.08 89.89 L 1076.65 67.92 L 1100.23 67.92 L 1093.65 89.89 L 1113.3 89.89 L 1110.92 97.95 L 1091.27 97.95 L 1078.25 141.32 Q 1076.5 147.25 1076.19 150.23 Q 1076 152.04 1076.26 152.83 Q 1077.08 155.09 1080.94 155.09 Q 1085.2 155.09 1088.1 152.23 Q 1091 149.38 1092.96 143.37 L 1102.89 143.37 Q 1099.1 154.02 1092.58 158.33 Q 1086.07 162.63 1073.29 162.63 Q 1058.71 162.63 1054.87 158.03 Q 1052.36 155.09 1053 148.97 Q 1053.35 145.65 1054.68 141.32 L 1067.7 97.95 Z M 1113.21 138.85 L 1120.74 138.85 Q 1120.57 139.85 1120.47 140.79 Q 1119.78 147.31 1123.3 151.21 Q 1126.83 155.09 1134.76 155.09 Q 1150.27 155.09 1153.14 145.43 Q 1153.55 144.18 1153.75 142.3 Q 1153.94 140.51 1152.44 138.53 Q 1150.95 136.53 1144.48 134.78 L 1135.49 132.33 Q 1125.31 129.6 1122.42 125.27 Q 1119.55 120.93 1120.11 115.6 Q 1120.35 113.34 1121.09 110.74 Q 1124.58 99.23 1134.25 93.6 Q 1143.95 87.96 1158.46 87.96 Q 1172.97 87.96 1188.38 92.22 L 1182.97 110.08 L 1175.44 110.08 Q 1175.79 108.82 1175.91 107.67 Q 1177.19 95.5 1162.12 95.5 Q 1147.01 95.5 1144.34 104.47 Q 1144.02 105.54 1143.86 107.07 Q 1143.4 111.4 1151.37 113.62 L 1160.3 116.07 Q 1173.19 119.6 1176.39 124.04 Q 1179.59 128.45 1178.98 134.18 Q 1178.74 136.53 1177.92 139.25 Q 1174.32 151.23 1164.06 156.94 Q 1153.81 162.63 1135.76 162.63 Q 1122.63 162.63 1107.34 158.63 L 1113.21 138.85 Z" fill="url(#face-light)" opacity="0.52"/>

    <!-- Fine top rim, intentionally much thinner than an outline -->
    <path id="fine-gold-rim" d="M 185.22 132.33 Q 176.68 147.71 164.24 155.17 Q 151.79 162.63 134.62 162.63 Q 109.45 162.63 99.02 148.74 Q 88.58 134.84 95.68 111.08 Q 102.77 87.23 121.58 73.36 Q 140.41 59.46 165.58 59.46 Q 174.42 59.46 183.36 61.59 Q 192.3 63.72 201.7 68.05 L 194.4 92.5 L 185.96 92.5 Q 187.12 79.96 182.11 73.74 Q 177.12 67.52 165.86 67.52 Q 151.35 67.52 141.08 78.22 Q 130.84 88.89 124.18 111.08 Q 117.52 133.24 121.39 143.9 Q 125.28 154.56 139.92 154.56 Q 149.85 154.56 157.78 149.04 Q 165.74 143.52 171.97 132.33 L 185.22 132.33 Z M 222.96 69.84 Q 224.6 64.45 229.4 60.76 Q 234.22 57.05 239.63 57.05 Q 244.87 57.05 247.49 60.78 Q 249.39 63.53 249.01 67.18 Q 248.88 68.45 248.47 69.84 Q 246.92 75.1 242.1 78.81 Q 237.28 82.5 232.01 82.5 Q 226.62 82.5 224.02 78.83 Q 222.03 76.11 222.41 72.44 Q 222.55 71.18 222.96 69.84 Z M 223.92 152.64 L 234.04 152.64 L 231.66 160.69 L 197.96 160.69 L 216.75 97.95 L 206.69 97.95 L 209.07 89.89 L 242.7 89.89 L 223.92 152.64 Z M 268.63 97.95 L 258.38 97.95 L 260.74 89.89 L 271.01 89.89 L 277.58 67.92 L 301.15 67.92 L 294.58 89.89 L 314.23 89.89 L 311.85 97.95 L 292.2 97.95 L 279.18 141.32 Q 277.43 147.25 277.11 150.23 Q 276.92 152.04 277.18 152.83 Q 278.01 155.09 281.87 155.09 Q 286.13 155.09 289.03 152.23 Q 291.93 149.38 293.88 143.37 L 303.81 143.37 Q 300.03 154.02 293.5 158.33 Q 287 162.63 274.21 162.63 Q 259.63 162.63 255.79 158.03 Q 253.29 155.09 253.93 148.97 Q 254.28 145.65 255.61 141.32 L 268.63 97.95 Z M 339.3 178.87 L 328.9 97.95 L 321.23 97.95 L 323.68 89.89 L 352.6 89.89 L 361.24 158.37 Q 370.07 147.31 376.5 134.82 Q 382.95 122.33 390.55 98.08 L 381.11 98.01 L 383.49 89.96 L 402.6 89.89 Q 400.04 98.42 396.49 109.42 Q 387.73 136.44 379.02 148.97 Q 356.07 181.6 339.79 187.61 Q 330.57 191 317.78 191 Q 311.52 191 302.69 188.14 L 307.13 173.35 L 314.64 173.42 Q 314.2 175.02 314.06 176.34 Q 313.57 180.94 316.55 182.41 Q 317.89 183.07 320.7 183.48 Q 322.28 183.67 323.88 183.67 Q 331.28 183.67 339.3 178.87 Z M 449.9 160.69 L 452.28 152.64 L 465.48 152.64 L 490.11 70.37 L 462.87 70.37 L 458.21 86.1 L 449.09 86.1 L 456.5 61.25 L 555.07 61.25 L 547.66 86.1 L 538.67 86.1 L 543.32 70.37 L 515.87 70.37 L 491.24 152.64 L 504.5 152.64 L 502.12 160.69 L 449.9 160.69 Z M 566.02 69.84 Q 567.66 64.45 572.45 60.76 Q 577.28 57.05 582.69 57.05 Q 587.93 57.05 590.55 60.78 Q 592.45 63.53 592.07 67.18 Q 591.94 68.45 591.53 69.84 Q 589.98 75.1 585.16 78.81 Q 580.34 82.5 575.07 82.5 Q 569.68 82.5 567.08 78.83 Q 565.09 76.11 565.47 72.44 Q 565.61 71.18 566.02 69.84 Z M 566.98 152.64 L 577.1 152.64 L 574.72 160.69 L 541.02 160.69 L 559.81 97.95 L 549.75 97.95 L 552.13 89.89 L 585.76 89.89 L 566.98 152.64 Z M 651.28 105.28 Q 652.31 95.5 644.04 95.5 Q 637.71 95.5 633.35 101.47 Q 629 107.41 623.64 126.13 Q 623.64 126.13 625.12 126.13 Q 645.49 126.13 650.32 109.95 Q 651.06 107.41 651.28 105.28 Z M 621.21 134.05 Q 620.57 136.31 620.07 141.04 Q 618.66 155.09 632.32 155.09 Q 639.97 155.09 645.92 151.04 Q 651.89 146.97 655.49 139.25 L 666.55 139.25 Q 660.09 151.3 649.86 156.96 Q 639.65 162.63 624.33 162.63 Q 605.95 162.63 599.04 152.96 Q 594.24 146.18 595.36 135.46 Q 595.85 130.86 597.48 125.47 Q 602.74 107.67 615.75 97.82 Q 628.79 87.96 646.37 87.96 Q 659.09 87.96 667.39 92.92 Q 675.69 97.89 674.75 106.88 Q 674.56 108.67 673.95 110.61 Q 667.49 132.18 621.21 134.05 Z M 762.59 89.11 L 756.26 110.21 L 748.73 110.21 Q 749.07 108.82 749.2 107.61 Q 749.59 103.88 748.21 101.81 Q 746.37 99.02 741.3 99.02 Q 733.58 99.02 727.07 105.82 Q 720.56 112.61 716.97 124.66 L 706.2 160.69 L 682.6 160.69 L 701.39 97.95 L 690.6 97.95 L 692.98 89.89 L 727.34 89.89 L 723.63 102.49 Q 729.27 95.1 736.03 91.54 Q 742.8 87.96 751.07 87.96 Q 753.12 87.96 755.98 88.28 Q 758.85 88.57 762.59 89.11 Z M 796.59 155.9 L 803.67 132.33 L 812.14 132.33 Q 810.68 143.52 816.22 149.04 Q 821.78 154.56 834.5 154.56 Q 844.84 154.56 851.41 150.63 Q 857.98 146.71 860.25 139.1 Q 862.07 133.12 859.37 129.79 Q 856.7 126.47 846.09 123.59 L 832.28 119.92 Q 818.82 116.19 814.89 109.59 Q 810.96 102.96 814.57 90.7 Q 819.07 75.91 831.35 67.69 Q 843.64 59.46 861.35 59.46 Q 870.07 59.46 879.04 60.93 Q 888.03 62.38 897.22 65.32 L 890.65 87.29 L 882.21 87.29 Q 883.35 77.04 878.25 72.29 Q 873.17 67.52 861.1 67.52 Q 851.26 67.52 845.18 70.95 Q 839.13 74.38 837.1 81.18 Q 835.23 87.36 837.73 90.6 Q 840.22 93.82 852.71 97.29 L 866.52 100.96 Q 879.35 104.41 883.39 111.74 Q 887.46 119.07 883.57 131.92 Q 879.05 146.97 866.31 154.81 Q 853.58 162.63 833.4 162.63 Q 823.68 162.63 814.58 160.95 Q 805.51 159.29 796.59 155.9 Z M 916.32 97.95 L 906.07 97.95 L 908.43 89.89 L 918.7 89.89 L 925.27 67.92 L 948.84 67.92 L 942.27 89.89 L 961.92 89.89 L 959.54 97.95 L 939.89 97.95 L 926.87 141.32 Q 925.12 147.25 924.8 150.23 Q 924.61 152.04 924.87 152.83 Q 925.7 155.09 929.56 155.09 Q 933.82 155.09 936.72 152.23 Q 939.62 149.38 941.57 143.37 L 951.51 143.37 Q 947.72 154.02 941.19 158.33 Q 934.69 162.63 921.9 162.63 Q 907.32 162.63 903.48 158.03 Q 900.98 155.09 901.62 148.97 Q 901.97 145.65 903.3 141.32 L 916.32 97.95 Z M 1017.95 102.34 Q 1018.17 98.36 1014.38 98.36 Q 1005.45 98.36 995.61 109.01 Q 991.03 113.94 986.1 130.39 Q 982.4 142.71 983.62 147.48 Q 984.87 152.23 991.2 152.23 Q 997.38 152.23 1001.86 146.71 Q 1006.34 141.17 1010.05 128.79 L 1017.95 102.34 Z M 1041.69 92.03 L 1023.66 152.64 L 1032.52 152.51 L 1030.06 160.69 L 1000.5 160.69 L 1003.17 151.7 Q 994.69 162.63 981.71 162.63 Q 968.86 162.63 964.02 154.15 Q 959.18 145.65 963.67 130.86 Q 968.09 116 982.23 103.15 Q 998.96 87.96 1019.2 87.96 Q 1039.17 87.96 1041.69 92.03 Z M 1067.7 97.95 L 1057.45 97.95 L 1059.81 89.89 L 1070.08 89.89 L 1076.65 67.92 L 1100.23 67.92 L 1093.65 89.89 L 1113.3 89.89 L 1110.92 97.95 L 1091.27 97.95 L 1078.25 141.32 Q 1076.5 147.25 1076.19 150.23 Q 1076 152.04 1076.26 152.83 Q 1077.08 155.09 1080.94 155.09 Q 1085.2 155.09 1088.1 152.23 Q 1091 149.38 1092.96 143.37 L 1102.89 143.37 Q 1099.1 154.02 1092.58 158.33 Q 1086.07 162.63 1073.29 162.63 Q 1058.71 162.63 1054.87 158.03 Q 1052.36 155.09 1053 148.97 Q 1053.35 145.65 1054.68 141.32 L 1067.7 97.95 Z M 1113.21 138.85 L 1120.74 138.85 Q 1120.57 139.85 1120.47 140.79 Q 1119.78 147.31 1123.3 151.21 Q 1126.83 155.09 1134.76 155.09 Q 1150.27 155.09 1153.14 145.43 Q 1153.55 144.18 1153.75 142.3 Q 1153.94 140.51 1152.44 138.53 Q 1150.95 136.53 1144.48 134.78 L 1135.49 132.33 Q 1125.31 129.6 1122.42 125.27 Q 1119.55 120.93 1120.11 115.6 Q 1120.35 113.34 1121.09 110.74 Q 1124.58 99.23 1134.25 93.6 Q 1143.95 87.96 1158.46 87.96 Q 1172.97 87.96 1188.38 92.22 L 1182.97 110.08 L 1175.44 110.08 Q 1175.79 108.82 1175.91 107.67 Q 1177.19 95.5 1162.12 95.5 Q 1147.01 95.5 1144.34 104.47 Q 1144.02 105.54 1143.86 107.07 Q 1143.4 111.4 1151.37 113.62 L 1160.3 116.07 Q 1173.19 119.6 1176.39 124.04 Q 1179.59 128.45 1178.98 134.18 Q 1178.74 136.53 1177.92 139.25 Q 1174.32 151.23 1164.06 156.94 Q 1153.81 162.63 1135.76 162.63 Q 1122.63 162.63 1107.34 158.63 L 1113.21 138.85 Z" fill="none" stroke="#D1AD5D" stroke-opacity="0.42" stroke-width="1.4" stroke-linejoin="round"/>
  </g>
</svg>
